<svg viewBox="-564 -233 1259 3280" width="1259" height="3280" version="1.1" baseProfile="full" xmlns="http://www.w3.org/2000/svg" class="js-draw--autoresize"><style id="js-draw-style-sheet">path{stroke-linecap:round;stroke-linejoin:round;}text{white-space:pre;}</style><g class="js-draw-image-background js-draw-image-background-grid js-draw-image-background-grid-25"><path d="M695,3047l0-3280l-1259,0l0,3280l1259,0" fill="#000000"></path><path d="M-564.35,-225l1259.7,0m-1259.7,25l1259.7,0m-1259.7,25l1259.7,0m-1259.7,25l1259.7,0m-1259.7,25l1259.7,0m-1259.7,25l1259.7,0m-1259.7,25l1259.7,0m-1259.7,25l1259.7,0m-1259.7,25l1259.7,0m-1259.7,25l1259.7,0m-1259.7,25l1259.7,0m-1259.7,25l1259.7,0m-1259.7,25l1259.7,0m-1259.7,25l1259.7,0m-1259.7,25l1259.7,0m-1259.7,25l1259.7,0m-1259.7,25l1259.7,0m-1259.7,25l1259.7,0m-1259.7,25l1259.7,0m-1259.7,25l1259.7,0m-1259.7,25l1259.7,0m-1259.7,25l1259.7,0m-1259.7,25l1259.7,0m-1259.7,25l1259.7,0m-1259.7,25l1259.7,0m-1259.7,25l1259.7,0m-1259.7,25l1259.7,0m-1259.7,25l1259.7,0m-1259.7,25l1259.7,0m-1259.7,25l1259.7,0m-1259.7,25l1259.7,0m-1259.7,25l1259.7,0m-1259.7,25l1259.7,0m-1259.7,25l1259.7,0m-1259.7,25l1259.7,0m-1259.7,25l1259.7,0m-1259.7,25l1259.7,0m-1259.7,25l1259.7,0m-1259.7,25l1259.7,0m-1259.7,25l1259.7,0m-1259.7,25l1259.7,0m-1259.7,25l1259.7,0m-1259.7,25l1259.7,0m-1259.7,25l1259.7,0m-1259.7,25l1259.7,0m-1259.7,25l1259.7,0m-1259.7,25l1259.7,0m-1259.7,25l1259.7,0m-1259.7,25l1259.7,0m-1259.7,25l1259.7,0m-1259.7,25l1259.7,0m-1259.7,25l1259.7,0m-1259.7,25l1259.7,0m-1259.7,25l1259.7,0m-1259.7,25l1259.7,0m-1259.7,25l1259.7,0m-1259.7,25l1259.7,0m-1259.7,25l1259.7,0m-1259.7,25l1259.7,0m-1259.7,25l1259.7,0m-1259.7,25l1259.7,0m-1259.7,25l1259.7,0m-1259.7,25l1259.7,0m-1259.7,25l1259.7,0m-1259.7,25l1259.7,0m-1259.7,25l1259.7,0m-1259.7,25l1259.7,0m-1259.7,25l1259.7,0m-1259.7,25l1259.7,0m-1259.7,25l1259.7,0m-1259.7,25l1259.7,0m-1259.7,25l1259.7,0m-1259.7,25l1259.7,0m-1259.7,25l1259.7,0m-1259.7,25l1259.7,0m-1259.7,25l1259.7,0m-1259.7,25l1259.7,0m-1259.7,25l1259.7,0m-1259.7,25l1259.7,0m-1259.7,25l1259.7,0m-1259.7,25l1259.7,0m-1259.7,25l1259.7,0m-1259.7,25l1259.7,0m-1259.7,25l1259.7,0m-1259.7,25l1259.7,0m-1259.7,25l1259.7,0m-1259.7,25l1259.7,0m-1259.7,25l1259.7,0m-1259.7,25l1259.7,0m-1259.7,25l1259.7,0m-1259.7,25l1259.7,0m-1259.7,25l1259.7,0m-1259.7,25l1259.7,0m-1259.7,25l1259.7,0m-1259.7,25l1259.7,0m-1259.7,25l1259.7,0m-1259.7,25l1259.7,0m-1259.7,25l1259.7,0m-1259.7,25l1259.7,0m-1259.7,25l1259.7,0m-1259.7,25l1259.7,0m-1259.7,25l1259.7,0m-1259.7,25l1259.7,0m-1259.7,25l1259.7,0m-1259.7,25l1259.7,0m-1259.7,25l1259.7,0m-1259.7,25l1259.7,0m-1259.7,25l1259.7,0m-1259.7,25l1259.7,0m-1259.7,25l1259.7,0m-1259.7,25l1259.7,0m-1259.7,25l1259.7,0m-1259.7,25l1259.7,0m-1259.7,25l1259.7,0m-1259.7,25l1259.7,0m-1259.7,25l1259.7,0m-1259.7,25l1259.7,0m-1259.7,25l1259.7,0m-1259.7,25l1259.7,0m-1259.7,25l1259.7,0m-1259.7,25l1259.7,0m-1259.7,25l1259.7,0m-1259.7,25l1259.7,0m-1259.7,25l1259.7,0m-1259.7,25l1259.7,0m-1259.7,25l1259.7,0m-1259.7,25l1259.7,0m-1259.7,25l1259.7,0m-1259.7,25l1259.7,0m-1259.7,25l1259.7,0m-1259.7,25l1259.7,0m-1245.35-3258.35l0,3280.7m25-3280.7l0,3280.7m25-3280.7l0,3280.7m25-3280.7l0,3280.7m25-3280.7l0,3280.7m25-3280.7l0,3280.7m25-3280.7l0,3280.7m25-3280.7l0,3280.7m25-3280.7l0,3280.7m25-3280.7l0,3280.7m25-3280.7l0,3280.7m25-3280.7l0,3280.7m25-3280.7l0,3280.7m25-3280.7l0,3280.7m25-3280.7l0,3280.7m25-3280.7l0,3280.7m25-3280.7l0,3280.7m25-3280.7l0,3280.7m25-3280.7l0,3280.7m25-3280.7l0,3280.7m25-3280.7l0,3280.7m25-3280.7l0,3280.7m25-3280.7l0,3280.7m25-3280.7l0,3280.7m25-3280.7l0,3280.7m25-3280.7l0,3280.7m25-3280.7l0,3280.7m25-3280.7l0,3280.7m25-3280.7l0,3280.7m25-3280.7l0,3280.7m25-3280.7l0,3280.7m25-3280.7l0,3280.7m25-3280.7l0,3280.7m25-3280.7l0,3280.7m25-3280.7l0,3280.7m25-3280.7l0,3280.7m25-3280.7l0,3280.7m25-3280.7l0,3280.7m25-3280.7l0,3280.7m25-3280.7l0,3280.7m25-3280.7l0,3280.7m25-3280.7l0,3280.7m25-3280.7l0,3280.7m25-3280.7l0,3280.7m25-3280.7l0,3280.7m25-3280.7l0,3280.7m25-3280.7l0,3280.7m25-3280.7l0,3280.7m25-3280.7l0,3280.7m25-3280.7l0,3280.7" fill="none" stroke="#ffffff33" stroke-width=".7"></path></g><path d="M-523,-208q-1,0 -3-2q-1-1 -11,13q-10,13 6,29q8,8 33-13q12-10 -1-36q-7-14 -15,7q-6,16 16,32q8,6 -7,24q-1,3 -1,6" fill="none" stroke="#30f0d3" stroke-width="4"></path><path d="M-458,-220q42-1 42-1" fill="none" stroke="#30f0d3" stroke-width="4"></path><path d="M-432,-219q-4,2 -7,8q-2,3 -9,40q0,1 2-4" fill="none" stroke="#30f0d3" stroke-width="4"></path><path d="M-413,-188q0,1 -2,3q-8,12 2,12q5-5 9-10q2,3 4,9q1,2 9,0q4-1 0-12q-1,0 -2,1q2,2 6,4q9-2 16-7q-1,4 -5,11q-4,8 10,4q5-1 3-9q-3-2 -6-4" fill="none" stroke="#30f0d3" stroke-width="4"></path><path d="M-292,-203q2-10 2-13q0-11 -21,10q-10,10 13,25q16,10 17,12q1,2 -23,4q-6,1 -20-4q1-1 2-3" fill="none" stroke="#30f0d3" stroke-width="4"></path><path d="M-268,-183q-1,0 -3,0q-1,0 -1,11q0,5 6-1q1-1 3-8q2,3 4,10q2,5 13-10q3-4 8,5q2,3 3,2q1-1 4-7q1-1 10,8q6-5 10-13q0,0 8,15q0,1 5-1" fill="none" stroke="#30f0d3" stroke-width="4"></path><path d="M-174,8Q-173.6,8.4 -174,8.4Q-174.4,8.4 -174.4,8Q-174.4,7.6 -174,7.6Q-173.6,7.6 -173.6,8" fill="none" stroke="#30f0d3" stroke-width="4"></path><text data-highp-transform="matrix(0.55,0,0,0.55,-452.591015625,-142.72500000000002)" style="transform: matrix(0.55, 0, 0, 0.55, -452.591, -142.725); font-family: sans-serif; font-size: 32px; fill: rgb(128, 51, 128);">Difficulty: Easy<tspan x="0" y="32" style="fill: rgb(128, 51, 128);">Topics: Array, Hash Table</tspan><tspan x="0" y="64" style="fill: rgb(128, 51, 128);"></tspan><tspan x="0" y="96" style="fill: rgb(128, 51, 128);">Problem</tspan><tspan x="0" y="128" style="fill: rgb(128, 51, 128);">Given an array of integers nums and an integer target, return indices of the two numbers such that they add up to target.</tspan><tspan x="0" y="160" style="fill: rgb(128, 51, 128);"></tspan><tspan x="0" y="192" style="fill: rgb(128, 51, 128);">You may assume that each input would have exactly one solution, and you may not use the same element twice.</tspan><tspan x="0" y="224" style="fill: rgb(128, 51, 128);"></tspan><tspan x="0" y="256" style="fill: rgb(128, 51, 128);">You can return the answer in any order.</tspan></text><path d="M-374,-59q72,6 76,8q8,3 45,3q1,0 -3-4" fill="none" stroke="#30f0d3" stroke-width="4"></path><path d="M-389,69q-1,13 -2,23q1-16 3-45q1-12 12-1q7,7 -10,18q-3,2 15,4q8,1 8,18q0,9 -22,3q-1-2 -1-5" fill="none" stroke="#30f0d3" stroke-width="4"></path><path d="M-339,72q2-5 4-5q10,0 10,18q0,1 -5,1q-10,0 7-14q1-1 7-3" fill="none" stroke="#30f0d3" stroke-width="4"></path><path d="M-310,74q1,10 3,10q6,0 6-8q0-7 6,11q1,5 10-4q1-2 2-4" fill="none" stroke="#30f0d3" stroke-width="4"></path><path d="M-277,57q0,1 -2,5q-3,15 -4,27q0,1 2-6q1-4 18-1" fill="none" stroke="#30f0d3" stroke-width="4"></path><path d="M-223,59q-7,35 -3,33" fill="none" stroke="#30f0d3" stroke-width="4"></path><path d="M-225,59q-3-7 -1-10q5-8 13-4q1,6 -1,13" fill="none" stroke="#30f0d3" stroke-width="4"></path><path d="M-225,80q0,2 4,2q10,0 26-8q0,5 -3,12q-3,7 9-2q4-3 -6-13q0,0 -3,1q-1,1 5,6" fill="none" stroke="#30f0d3" stroke-width="4"></path><path d="M-180,80q-1-4 2-6q5-3 5,11q0,0 1-1q8-10 11-10" fill="none" stroke="#30f0d3" stroke-width="4"></path><path d="M-142,79q1-5 -1-6q-6-3 -13,10q-3,6 25,2q15-2 22-12q-5,0 -12,2q-12,3 0,12q13,9 27-5" fill="none" stroke="#30f0d3" stroke-width="4"></path><path d="M-15,25Q-8,9 -8,3Q-8,-3 -16,5Q-21,10 -21,41Q-12,44 -2,44" fill="none" stroke="#30f0d3" stroke-width="4"></path><path d="M32,20q2,0 10-2q0,0 -1,1" fill="none" stroke="#30f0d3" stroke-width="4"></path><path d="M32,31q15,1 16,1" fill="none" stroke="#30f0d3" stroke-width="4"></path><path d="M93,-5Q91,21 89,42Q89,43 92,39" fill="none" stroke="#30f0d3" stroke-width="4"></path><path d="M102,-10q-5-1 -7-1q36-1 103-3q44-2 80-4q70,1 127,4q45,2 81,3" fill="none" stroke="#30f0d3" stroke-width="4"></path><path d="M484,-11q-9,49 -9,60" fill="none" stroke="#30f0d3" stroke-width="4"></path><path d="M94,42q-1,9 -2,16" fill="none" stroke="#30f0d3" stroke-width="4"></path><path d="M91,57q66-1 111-5q23-2 115,0q35,1 133,13q9,1 44,0q1,0 -5-2" fill="none" stroke="#30f0d3" stroke-width="4"></path><path d="M104,84q-10,6 -12,12q-4,11 14,6q10-3 2-19q-5-10 -12-3" fill="none" stroke="#30f0d3" stroke-width="4"></path><path d="M418,102q1-8 4-8q2,0 2,10q3-4 6-11q2-5 6,6q1,4 1,7" fill="none" stroke="#30f0d3" stroke-width="4"></path><path d="M454,103q3-4 6-4q4,0 8,0" fill="none" stroke="#30f0d3" stroke-width="4"></path><path d="M488,94q-1,4 -1,7q-1,6 -3,10" fill="none" stroke="#30f0d3" stroke-width="4"></path><path d="M487,89q-3,0 -4,3q0,1 -6,7" fill="none" stroke="#30f0d3" stroke-width="4"></path><path d="M468,120q0,1 2,4q2,3 26,0q1,0 3,0" fill="none" stroke="#30f0d3" stroke-width="4"></path><path d="M153,-11q9-3 9,5q-1,28 -3,51q0,1 7-6" fill="none" stroke="#30f0d3" stroke-width="4"></path><path d="M264,-10Q260,-6 259,0Q253,37 258,37" fill="none" stroke="#30f0d3" stroke-width="4"></path><path d="M327,-11q-6,42 -6,54q0,1 3,4" fill="none" stroke="#30f0d3" stroke-width="4"></path><path d="M405,0Q399,5 397,10Q390,39 387,64" fill="none" stroke="#30f0d3" stroke-width="4"></path><path d="M196,92q-15,14 -22,15q-1,0 0-7q5,6 11,19q2,3 9,1" fill="none" stroke="#30f0d3" stroke-width="4"></path><path d="M204,106q-1,0 -3,1q-3,1 16,0q75,1 137,3q20,1 14-5q-3-2 -5-3" fill="none" stroke="#30f0d3" stroke-width="4"></path><path d="M359,99q0,3 2,14q1,6 -22,13" fill="none" stroke="#30f0d3" stroke-width="4"></path><path d="M40,186q10-2 16-2" fill="none" stroke="#30f0d3" stroke-width="4"></path><path d="M46,194q9,0 16,0" fill="none" stroke="#30f0d3" stroke-width="4"></path><path d="M103,166q-3-3 -6-2q-10,3 -18,25q-6,17 22,25q1,0 6-2" fill="none" stroke="#30f0d3" stroke-width="4"></path><path d="M140,177q-1,3 -1,6q0,11 1,20" fill="none" stroke="#30f0d3" stroke-width="4"></path><path d="M124,172q1-1 3-4q14-4 27-4" fill="none" stroke="#30f0d3" stroke-width="4"></path><path d="M180,194q-1-5 -6-5q-10,0 -13,15q-1,8 11-5q1-1 5,1q10,4 10,4q1,0 3-3" fill="none" stroke="#30f0d3" stroke-width="4"></path><path d="M194,193q3-5 8-6q4-1 6,9q0,3 -1,6q4-3 10-9q3-3 7,4" fill="none" stroke="#30f0d3" stroke-width="4"></path><path d="M233,200q7-8 6-10q-1-1 -11,9q-2,2 6-2q4-2 0,21q-1,12 -2,22q0,5 -12,0q-15-6 7-23q3-2 6-3" fill="none" stroke="#30f0d3" stroke-width="4"></path><path d="M257,194q8,0 15-3q1,0 0-4q0-2 -13,11q-5,5 18,5q8,0 10-2" fill="none" stroke="#30f0d3" stroke-width="4"></path><path d="M298,176q-1,3 -1,6q-4,24 -3,23" fill="none" stroke="#30f0d3" stroke-width="4"></path><path d="M294,198q3-4 8-5q1,0 5-4" fill="none" stroke="#30f0d3" stroke-width="4"></path><path d="M318,157q11,7 18,15q12,14 -10,40q-1,1 -6,2" fill="none" stroke="#30f0d3" stroke-width="4"></path><path d="M-26,306q1-1 2-2q4-4 14,10q1,1 -4,5q-8,7 6-17q5-8 10-8" fill="none" stroke="#30f0d3" stroke-width="4"></path><path d="M7,304Q19,298 19,294Q19,293 13,298Q8,302 17,311Q26,320 40,302" fill="none" stroke="#30f0d3" stroke-width="4"></path><path d="M49,284q-2,13 -4,24q-1-2 -3-6q-1-3 14,0q7,1 11-7q1,4 0,12q0,5 10-5q1-1 5,4q2,3 15-2q5-2 3-9q2,5 6,14q3,8 13-12q2,4 3,10q4-2 8-8q4,4 7,12q1,0 2-1" fill="none" stroke="#30f0d3" stroke-width="4"></path><path d="M184,279q-4-1 -6,1q-22,22 0,41q6,6 19-2" fill="none" stroke="#30f0d3" stroke-width="4"></path><path d="M345,276q2,0 8-1q6-1 6,25q0,14 -17,27q0,0 -3,0" fill="none" stroke="#30f0d3" stroke-width="4"></path><path d="M214,292q-2-1 -4-1q-3-1 -3,11q0,2 10,7" fill="none" stroke="#30f0d3" stroke-width="4"></path><path d="M214,271q-1-1 -2-2" fill="none" stroke="#30f0d3" stroke-width="4"></path><path d="M275,304q-8,7 -12,18" fill="none" stroke="#30f0d3" stroke-width="4"></path><path d="M296,294q1-5 3-5q5,0 5,17q2-6 4-17q3-13 11,8q0,4 -1,8" fill="none" stroke="#30f0d3" stroke-width="4"></path><path d="M125,362q0,0 -1,2q-2,17 -1,31q-1,13 -2,23q18,4 40,0" fill="none" stroke="#30f0d3" stroke-width="4"></path><path d="M157,404q0,0 2,0q9,0 0,25q-3,5 -5,9" fill="none" stroke="#30f0d3" stroke-width="4"></path><path d="M217,409q15-21 15-30q0-9 -7-2q-6,6 -12,29q-6,23 20,23" fill="none" stroke="#30f0d3" stroke-width="4"></path><path d="M270,381q-13-3 -16-2q-1,5 1,11q-2,21 -6,38q-1,4 14,4q6,1 11,2q1,0 -1-3" fill="none" stroke="#30f0d3" stroke-width="4"></path><path d="M285,404q-1,2 -1,3q-9,26 5,19" fill="none" stroke="#30f0d3" stroke-width="4"></path><path d="M290,394q.4,.4 0,.4q-.4,0 -.4-.4q0-.4 .4-.4q.4,0 .4,.4" fill="none" stroke="#30f0d3" stroke-width="4"></path><path d="M314,375q1,0 4-1q16-4 19,7q1,24 0,43q0,7 1,13q0,3 -26,3" fill="none" stroke="#30f0d3" stroke-width="4"></path><path d="M388,393q0,14 0,26" fill="none" stroke="#30f0d3" stroke-width="4"></path><path d="M375,409q24-5 26-5" fill="none" stroke="#30f0d3" stroke-width="4"></path><path d="M420,408q9-11 9-20q0-9 -5-9q-1,0 -6,35q-3,23 14,23q7,0 7-8" fill="none" stroke="#30f0d3" stroke-width="4"></path><path d="M474,378q-11-3 -15-2q-5,1 -4,7q-1,23 -5,42q-1,7 21,7q0,0 2-1" fill="none" stroke="#30f0d3" stroke-width="4"></path><path d="M477,404q2-5 4-6q7-4 7,16q0,0 1,0q5-6 7-12q2-5 6,6q3,6 -1,10" fill="none" stroke="#30f0d3" stroke-width="4"></path><path d="M510,374q7-5 14-6q10-1 10,1q4,19 8,35q2,7 0,37q0,3 -13-3q-2-1 -10,1" fill="none" stroke="#30f0d3" stroke-width="4"></path><path d="M592,397q10-3 12-3q1,0 -5,3" fill="none" stroke="#30f0d3" stroke-width="4"></path><path d="M584,408q28,3 25,2" fill="none" stroke="#30f0d3" stroke-width="4"></path><path d="M-15,163q0,46 5,51q5,5 12,0q1,0 -2-3" fill="none" stroke="#30f0d3" stroke-width="4"></path><path d="M-26,190q21-1 33-1q1,0 -3-1" fill="none" stroke="#30f0d3" stroke-width="4"></path><path d="M652,369q-1,1 -3,5q-6,16 -10,29q-3,12 3,16q11,7 18,0q0,0 0-2" fill="none" stroke="#30f0d3" stroke-width="4"></path><path d="M633,393q0,0 2-1q18-1 34,2q2,0 -7-3" fill="none" stroke="#30f0d3" stroke-width="4"></path><path d="M-363,558q12-27 9-32q-3-6 -4-5q-5,3 -5,32q0,27 16,11q6-5 7-10q-1,4 -3,11q-3,10 10,4q9-5 -1-15q-5-5 -5,3q0,0 2,0" fill="none" stroke="#30f0d3" stroke-width="4"></path><path d="M-323,557q-1,1 -3,4q-4,5 5,9q6,3 9-7q2-6 -8-6q0,0 0,2" fill="none" stroke="#30f0d3" stroke-width="4"></path><path d="M-303,557q1,23 2,42q1-1 2-2" fill="none" stroke="#30f0d3" stroke-width="4"></path><path d="M-298,557q-1-1 -3-5q4,1 9,5q4,3 -14,15" fill="none" stroke="#30f0d3" stroke-width="4"></path><path d="M-269,542q0,5 0,26q0,1 0-6" fill="none" stroke="#30f0d3" stroke-width="4"></path><path d="M-268,533q-2-4 -4-2q-11,12 -6,17" fill="none" stroke="#30f0d3" stroke-width="4"></path><path d="M-275,571q16,0 20-1q0,0 -1,0" fill="none" stroke="#30f0d3" stroke-width="4"></path><path d="M-170,537q-9,10 -10,20q-2,11 15,11q18,0 3-23q-3-4 -5,0" fill="none" stroke="#30f0d3" stroke-width="4"></path><path d="M-115,552q30-3 54-5" fill="none" stroke="#30f0d3" stroke-width="4"></path><path d="M-10,546Q-8,541 -3,539Q1,546 3,556Q5,553 8,547Q10,543 13,549Q14,555 14,560Q14,561 18,563" fill="none" stroke="#30f0d3" stroke-width="4"></path><path d="M44,549q1-2 7-2q7,0 12-1" fill="none" stroke="#30f0d3" stroke-width="4"></path><path d="M75,537q0,0 2-1q4-2 0,21q0,0 1,0" fill="none" stroke="#30f0d3" stroke-width="4"></path><path d="M77,534q-1-5 -3-2q-10,15 -8,20" fill="none" stroke="#30f0d3" stroke-width="4"></path><path d="M75,568q0,0 2,1q7,0 13-2" fill="none" stroke="#30f0d3" stroke-width="4"></path><path d="M-139,559q-1-7 -1-8" fill="none" stroke="#30f0d3" stroke-width="4"></path><path d="M164,546q1-1 2-2q1-1 39-1" fill="none" stroke="#30f0d3" stroke-width="4"></path><path d="M200,534q2,1 3,2q5,3 -8,16q-2,1 -3,1" fill="none" stroke="#30f0d3" stroke-width="4"></path><path d="M273,504q1,26 1,46q0-1 0-4" fill="none" stroke="#30f0d3" stroke-width="4"></path><path d="M277,498q125-2 130-3q9-1 71-1q48,0 87-1q26,0 47,0q42,0 40-2" fill="none" stroke="#30f0d3" stroke-width="4"></path><path d="M652,489q2,12 2,39q0,15 1,28q0,1 -5-2" fill="none" stroke="#30f0d3" stroke-width="4"></path><path d="M282,554q-2,8 -3,14q0,0 35-4q21-3 108,0q81,5 147,10q26,2 83,2q5,0 13-4q2-1 -12-3" fill="none" stroke="#30f0d3" stroke-width="4"></path><path d="M317,594q-4,20 -5,17" fill="none" stroke="#30f0d3" stroke-width="4"></path><path d="M317,586q0-4 -4-3q-8,2 -12,14q7-4 16-12q4-4 8,7q0,1 -1,4" fill="none" stroke="#30f0d3" stroke-width="4"></path><path d="M306,638q-7-1 -11,2q-11,8 0,16q4,3 14-7q5-5 -6-10" fill="none" stroke="#30f0d3" stroke-width="4"></path><path d="M358,501q4,35 7,63q2-2 5-5" fill="none" stroke="#30f0d3" stroke-width="4"></path><path d="M437,504q-1-3 -2-5q0,0 3,25q1,14 1,25q0,1 1-3" fill="none" stroke="#30f0d3" stroke-width="4"></path><path d="M512,496q2,43 2,76q0,1 3-6" fill="none" stroke="#30f0d3" stroke-width="4"></path><path d="M584,501q-2,69 -2,71" fill="none" stroke="#30f0d3" stroke-width="4"></path><path d="M623,610q-4-6 -4-8q0-1 5,3q2,1 0,10q2-3 4-10q3-10 8,4q0,4 0,8" fill="none" stroke="#30f0d3" stroke-width="4"></path><path d="M650,612q9-2 12-1" fill="none" stroke="#30f0d3" stroke-width="4"></path><path d="M677,602q1,0 3,0q1,6 0,13" fill="none" stroke="#30f0d3" stroke-width="4"></path><path d="M679,587q-12,23 -12,26" fill="none" stroke="#30f0d3" stroke-width="4"></path><path d="M672,625q12,1 21,2q-3-1 -9-3" fill="none" stroke="#30f0d3" stroke-width="4"></path><path d="M517,614q4-8 7-8q3,0 3,18q2-4 5-12q2-6 6,5q1,5 1,10" fill="none" stroke="#30f0d3" stroke-width="4"></path><path d="M549,617q8-1 8-2" fill="none" stroke="#30f0d3" stroke-width="4"></path><path d="M564,610q6-2 9,1q-3,10 -11,18q6,1 15,0" fill="none" stroke="#30f0d3" stroke-width="4"></path><path d="M544,583q0,12 0,21q0,1 -2-2" fill="none" stroke="#ff0000" stroke-width="4"></path><path d="M544,581q-2-2 -4,1q-2,4 -5,5q-1,0 5-2q1-1 3,6q0,1 -3,3" fill="none" stroke="#ff0000" stroke-width="4"></path><path d="M282,690q-1,17 5,19q22,7 35,4q29-5 52-9q26-4 53-4q18,0 27,19q1,3 -7,7q-4,2 -7-5q-2-4 16-13q15-7 26-2q30,2 56-1q35-4 43-16q5-14 8-27q-1-3 -2-5" fill="none" stroke="#ff0000" stroke-width="4"></path><path d="M-223,545q3,12 0,9q-1-4 -1-7" fill="none" stroke="#ff0000" stroke-width="4"></path><path d="M-222,544q0,1 -1,3q0,9 2,17q1,5 3,3q6-14 9-26q0,0 -1,2" fill="none" stroke="#ff0000" stroke-width="4"></path><path d="M-208,559q3,11 2,19" fill="none" stroke="#ff0000" stroke-width="4"></path><path d="M346,737q1,2 2,4q2,10 3,18q4-8 8-24" fill="none" stroke="#ff0000" stroke-width="4"></path><path d="M367,749q0,1 0,3q0,6 1,11" fill="none" stroke="#ff0000" stroke-width="4"></path><path d="M292,764q6-8 8-19q4-18 -6-13q-2,1 -2,23q-1,10 -3,19q-1,6 13,6q4,0 6-5" fill="none" stroke="#ff0000" stroke-width="4"></path><path d="M339,734q-16-3 -15,1q-1,18 -4,33q-2,10 9,10q8,0 8-2" fill="none" stroke="#ff0000" stroke-width="4"></path><path d="M375,724q0,0 1-2q1-3 16,0q4,14 3,30q2,13 4,24q0,2 -14,2q0,0 1-2" fill="none" stroke="#ff0000" stroke-width="4"></path><path d="M436,740q4,23 2,21" fill="none" stroke="#ff0000" stroke-width="4"></path><path d="M430,752q1-1 2-2q12-1 23,2" fill="none" stroke="#ff0000" stroke-width="4"></path><path d="M472,752q10-11 12-21q3-14 -2-9q-6,6 -6,29q0,16 16,16q1,0 4-7" fill="none" stroke="#ff0000" stroke-width="4"></path><path d="M529,735q-7-3 -10-3q-4,0 -3,2q4,7 -3,27q-2,6 16,6" fill="none" stroke="#ff0000" stroke-width="4"></path><path d="M537,742q0,0 2,2q4,10 6,20q4-8 7-22" fill="none" stroke="#ff0000" stroke-width="4"></path><path d="M557,752q8,0 10,5q1,3 -8,7q5,0 13-1q5-1 5-2" fill="none" stroke="#ff0000" stroke-width="4"></path><path d="M578,719q5-4 10-5q11-2 11,3q1,30 3,54q0,4 -18,4q-1,0 -7,1" fill="none" stroke="#ff0000" stroke-width="4"></path><path d="M-276,686q10-27 10-40q0-11 -7-4q-3,3 -3,45q0,8 14,6q9-1 9-12q0-1 -3,5q-3,6 9,3q9-2 -6-10q5-2 15-4q0,4 -1,9q-1,3 8,3q5,0 2-8q-2,0 -5,0" fill="none" stroke="#ff0000" stroke-width="4"></path><path d="M-221,677q4,2 4,7q0,3 -7,6q5,1 15,1" fill="none" stroke="#ff0000" stroke-width="4"></path><path d="M-177,661q3-1 6-2q4-1 -10,20q-2,3 27,3q-1,0 -4-1" fill="none" stroke="#ff0000" stroke-width="4"></path><path d="M-131,648q1-3 3-1q9,16 15,31q3-10 4-27q0-1 4-9q-1,1 -2,2" fill="none" stroke="#ff0000" stroke-width="4"></path><path d="M-98,667q10,3 11,5q-4,9 -10,17q7,1 18,0" fill="none" stroke="#ff0000" stroke-width="4"></path><path d="M9,644Q9,645 9,649Q9,663 9,674Q9,675 7,670" fill="none" stroke="#ff0000" stroke-width="4"></path><path d="M4,638Q-8,659 -6,659" fill="none" stroke="#ff0000" stroke-width="4"></path><path d="M0,685Q24,684 25,683" fill="none" stroke="#ff0000" stroke-width="4"></path><path d="M79,652q-3,0 -5,0q15,1 43,2" fill="none" stroke="#ff0000" stroke-width="4"></path><path d="M144,653q0-7 2-10q1-1 5,6q2,4 2,13q1-5 3-15q1-4 10,2q3,8 4,15" fill="none" stroke="#ff0000" stroke-width="4"></path><path d="M187,652q9,0 17,0" fill="none" stroke="#ff0000" stroke-width="4"></path><path d="M224,635q0,5 0,27q0,1 0-4" fill="none" stroke="#ff0000" stroke-width="4"></path><path d="M225,619q-11,28 -11,31" fill="none" stroke="#ff0000" stroke-width="4"></path><path d="M218,673q19-2 24-2q-4,0 -12,1" fill="none" stroke="#ff0000" stroke-width="4"></path><path d="M-112,841q-1-4 2-7q9-9 21,8q8,11 -3,16q-4,2 -4-4q0-10 20-20q-1,1 -3,3" fill="none" stroke="#ff0000" stroke-width="4"></path><path d="M-76,846q15-7 15-11q0-6 -12,9q-8,10 6,13q11,2 14-1" fill="none" stroke="#ff0000" stroke-width="4"></path><path d="M-37,827q1-5 2-3q2,4 2,33q0,1 -3-2" fill="none" stroke="#ff0000" stroke-width="4"></path><path d="M-46,848q1-1 1-2q1-2 27-2" fill="none" stroke="#ff0000" stroke-width="4"></path><path d="M-17,844q-1,8 0,10q4,8 12-8q2,3 4,9q1,4 11-3q2-1 2-14q0-4 18,9q12,9 -7,9q-3,0 10-13q1-1 4-2" fill="none" stroke="#ff0000" stroke-width="4"></path><path d="M42,846q9-6 10-4q2,4 2,14q4-4 9-13q4-7 7,14q0,2 -1,3" fill="none" stroke="#ff0000" stroke-width="4"></path><path d="M-171,772q0,1 -1,3q-3,10 6,7q5-7 8-15q1-3 0-16q-4,26 -8,74q-1,16 10,12q7-2 2-20q-1-3 -15-17q1-2 2-3" fill="none" stroke="#ff0000" stroke-width="4"></path><path d="M-96,761q-2,10 -2,23q0,5 14,5" fill="none" stroke="#ff0000" stroke-width="4"></path><path d="M-103,772q1,0 5-1q5-1 11-1" fill="none" stroke="#ff0000" stroke-width="4"></path><path d="M-48,767q20,0 20-1" fill="none" stroke="#ff0000" stroke-width="4"></path><path d="M-46,780q19,3 19,1" fill="none" stroke="#ff0000" stroke-width="4"></path><path d="M-5,763Q13,763 14,764" fill="none" stroke="#ff0000" stroke-width="4"></path><path d="M4,782Q13,782 21,782" fill="none" stroke="#ff0000" stroke-width="4"></path><path d="M50,767q10-15 8-23q-3-13 -11,3q-3,15 -3,28q0,12 18,12q3-2 5-5" fill="none" stroke="#ff0000" stroke-width="4"></path><path d="M89,757q0-1 1-5q1-3 -13,0q0,6 4,13q0,9 -2,16q7,2 16,2" fill="none" stroke="#ff0000" stroke-width="4"></path><path d="M102,759q0,1 0,3q0,5 7,15q4-6 7-16" fill="none" stroke="#ff0000" stroke-width="4"></path><path d="M123,769q4,7 4,9" fill="none" stroke="#ff0000" stroke-width="4"></path><path d="M132,752q0-1 -2-5q6,0 14,2q5,1 5,35q-7,3 -15,4" fill="none" stroke="#ff0000" stroke-width="4"></path><path d="M165,756q2,12 4,21" fill="none" stroke="#ff0000" stroke-width="4"></path><path d="M161,767q15-1 16-1" fill="none" stroke="#ff0000" stroke-width="4"></path><path d="M185,767q13-10 15-18q3-13 -6-7q-5,3 -5,30q0,13 18,4q1,0 2-3" fill="none" stroke="#ff0000" stroke-width="4"></path><path d="M209,754q0,0 2-2q1-1 3,10q2,15 5,15q5,0 5-1" fill="none" stroke="#ff0000" stroke-width="4"></path><path d="M218,752q0-5 4-6q4-1 6,1" fill="none" stroke="#ff0000" stroke-width="4"></path><path d="M229,757q4,8 6,14q3-6 5-16q0-1 2,2" fill="none" stroke="#ff0000" stroke-width="4"></path><path d="M245,764q4,3 4,7q0,1 -3,5q-1,1 6-2" fill="none" stroke="#ff0000" stroke-width="4"></path><path d="M254,741q0,0 1-2q1-3 9,1q5,3 5,45q0,4 -35,1" fill="none" stroke="#ff0000" stroke-width="4"></path><path d="M125,817q-6,0 -8,4q-5,9 -9,16q-9,16 12,35q5,2 10,2" fill="none" stroke="#ff0000" stroke-width="4"></path><path d="M152,832q0,1 1,3q4,12 4,22q0,17 14-25q0-1 2-5q0,2 -1,5" fill="none" stroke="#ff0000" stroke-width="4"></path><path d="M181,846q4,13 5,16" fill="none" stroke="#ff0000" stroke-width="4"></path><path d="M227,856q0-1 2-3q-2,7 -6,20q-2,3 -4,6" fill="none" stroke="#ff0000" stroke-width="4"></path><path d="M264,829q9,28 9,29q1,3 12-29q0-1 1,3" fill="none" stroke="#ff0000" stroke-width="4"></path><path d="M290,844q10,5 6,10q-3,4 -6,8q-2,3 17,0q3-1 5-3" fill="none" stroke="#ff0000" stroke-width="4"></path><path d="M320,821q0-1 0-5q0-3 11,7q20,17 -4,58q-3,5 -27,10" fill="none" stroke="#ff0000" stroke-width="4"></path><path d="M-547,994q-7,6 -9,15q-6,29 18,23q15-4 15-28q0-17 -16-14q-2,0 -7,8" fill="none" stroke="#00fff2" stroke-width="4"></path><path d="M-513,1017q-3,33 -3,37q0,1 2-5" fill="none" stroke="#00fff2" stroke-width="4"></path><path d="M-516,1024q-1-7 2-9q10-6 15,4q3,5 -9,13q-2-1 -3-3" fill="none" stroke="#00fff2" stroke-width="4"></path><path d="M-477,997q2,23 -2,27q-3,3 -7-6q7-3 18-4" fill="none" stroke="#00fff2" stroke-width="4"></path><path d="M-450,1012q-3,0 -4,3q-4,11 3,11q7-4 12-9q3,3 5,9q3-2 6-6q3,2 5,6q6-3 12-9q2,3 4,9q4-3 9-9q3,3 6,9" fill="none" stroke="#00fff2" stroke-width="4"></path><path d="M-382,1014q15,0 19,2q-5,3 -13,6q-3,1 9,7q9,5 -1,18q-5,6 -24,6q-1,0 4-5" fill="none" stroke="#00fff2" stroke-width="4"></path><path d="M-348,1020q10-3 12-5q3-3 -9,1q-12,4 -2,11q15,0 28-3" fill="none" stroke="#00fff2" stroke-width="4"></path><path d="M-311,1024q10-8 9-11q-1-4 -9,4q-5,5 3,5q8,0 20-30q1-7 2-12q0-2 -2,9q-2,22 -3,40q0,0 -2,1" fill="none" stroke="#00fff2" stroke-width="4"></path><path d="M-386,989q.4,.4 0,.4q-.4,0 -.4-.4q0-.4 .4-.4q.4,0 .4,.4" fill="none" stroke="#00fff2" stroke-width="4"></path><path d="M-431,989q2-2 3-2" fill="none" stroke="#00fff2" stroke-width="4"></path><path d="M-190,997q-2-12 -8-15q-12-6 -16,9q-2,8 21,23q1,1 -6,3q-8,3 -23-1q-1,0 6,0" fill="none" stroke="#00fff2" stroke-width="4"></path><path d="M-181,1009q0-1 -2-5q-3,3 -5,10q-1,4 8,4q9,0 0-14q0-1 -1,3q0,2 10-1q18-5 18-27q0-1 -3,0q-4,1 -4,30q0,13 17,3q10-6 10-29q0-8 -6,10q-8,24 6,19q2-1 7-7q2,3 4,7q2-2 4-5q1-1 3,5q2,6 14-15" fill="none" stroke="#00fff2" stroke-width="4"></path><path d="M-98,989q2-7 2-9q-1,14 -2,39q0,1 -4,0q-1,0 -2-6q14-8 32-11q0,0 -1,1q-5,4 2,11q1,1 12-10q2,3 3,8q6,0 13-4q1,0 4,3q-2-2 -7-7q-5-5 8-5q2,0 7,10q1,1 5-6q5-9 15-4q5,2 0,16q-2,7 -11,3" fill="none" stroke="#00fff2" stroke-width="4"></path><path d="M-64,977q1-2 2-4" fill="none" stroke="#00fff2" stroke-width="4"></path><path d="M52,963q-2,2 -4,3q-4,19 -3,38q1,12 6,12q10,0 20-39q0-2 0-10q0-2 3,7" fill="none" stroke="#00fff2" stroke-width="4"></path><path d="M74,1009q10-12 14-17q6-8 -4-8q-10,0 9,14q9,7 1,7q-3,0 -6,0q1,0 4-1" fill="none" stroke="#00fff2" stroke-width="4"></path><path d="M113,992q-1,0 -3-1q-1,0 -1,12q4-3 8-9q2,2 3,5q1,1 7-5q3,3 6,8q2,3 20-6q2-1 6-12q0-1 -5,5q-2,20 2,38q2,13 -12,27q-4,4 -8-35" fill="none" stroke="#00fff2" stroke-width="4"></path><path d="M110,970q0-1 2-4q1-2 9-2" fill="none" stroke="#00fff2" stroke-width="4"></path><path d="M230,947q-6,42 -6,53" fill="none" stroke="#00fff2" stroke-width="4"></path><path d="M218,989q1-2 11-2q38,0 35-25q-1-8 -2-15q-3,18 -5,50" fill="none" stroke="#00fff2" stroke-width="4"></path><path d="M300,989q8-9 6-12q-3-6 -19,8q-14,12 3,12q15,0 20-2q19-8 16-23q0-1 -7-1q0,5 2,11q8,9 16,16q7,5 -13,3q-7-1 32-33q2-4 2-8q-2,3 -5,9q-2,4 -2,28q0,2 10-13q3,7 5,19q0,1 3,0" fill="none" stroke="#00fff2" stroke-width="4"></path><path d="M429,964q-2,29 -1,28" fill="none" stroke="#00fff2" stroke-width="4"></path><path d="M429,967q-1-5 -2-10q2,8 6,22q1,6 26-25q9-11 6,20q-1,12 2,18" fill="none" stroke="#00fff2" stroke-width="4"></path><path d="M496,989q4-14 -4-10q-15,8 -6,12q1,1 3-5q3,3 5,8q1,3 20-12q1-1 2,4q7,25 4,31q-1,2 2-10" fill="none" stroke="#00fff2" stroke-width="4"></path><path d="M522,973q1-6 5-6q19,0 17,17q-2,13 -82,27q-7,1 -13,1" fill="none" stroke="#00fff2" stroke-width="4"></path><path d="M206,1029q11,4 13,9q7,21 22,25q21,5 64-1q49-7 61,5q13,13 13,19q0,1 -7,1q-3,0 3-13q7-17 79-10q49,4 105-5q21-4 16-36q-2-14 -20,4" fill="none" stroke="#00fff2" stroke-width="4"></path><path d="M202,1121q-3,23 -5,31" fill="none" stroke="#00fff2" stroke-width="4"></path><path d="M198,1122q-3-16 1-20q6-5 18,7q8,8 -17,20" fill="none" stroke="#00fff2" stroke-width="4"></path><path d="M222,1129q0,1 0,5q5-1 11-4q1,0 -8,39q-4,18 -15-1q-6-10 35-34" fill="none" stroke="#00fff2" stroke-width="4"></path><path d="M259,1114q-1,0 -4-1q-1,0 -8,26q-1-1 -1-3q0,0 13-3q10-2 10-12q-3,7 -6,20q-2,8 14-8q1,3 2,7q0,2 15-3q2,4 2,10q0,1 4-5q4-7 -6-10" fill="none" stroke="#00fff2" stroke-width="4"></path><path d="M319,1137q1,0 2,0q5,0 -4,13q3-4 9-12q1-2 3,11q0,1 5,3" fill="none" stroke="#00fff2" stroke-width="4"></path><path d="M398,1141q-1-7 -5-9q-9-5 -14,10q-2,7 18-3q7-3 7-20q0-10 -7,18q-4,17 18-5q1-1 0,7q-1,10 12-3q2-2 -1,4q0,2 1,3" fill="none" stroke="#00fff2" stroke-width="4"></path><path d="M438,1131q-2-2 -4,0q-2,2 -2,5" fill="none" stroke="#00fff2" stroke-width="4"></path><path d="M462,1112q-4,25 -4,30" fill="none" stroke="#00fff2" stroke-width="4"></path><path d="M452,1137q1,0 7-2q5-1 10-1q1,0 5-5q0,3 -2,9q0,1 7,1" fill="none" stroke="#00fff2" stroke-width="4"></path><path d="M490,1134q0,1 1,3q0,1 -1,7q0,1 4,0q0-7 -3-15q-2-4 8-4q6,0 6,19q4-5 9-15q6-11 10,6q2,6 3,6" fill="none" stroke="#00fff2" stroke-width="4"></path><path d="M558,1128q0-1 0-6q0-2 -16,9q-1,1 -4,6q-1,2 12-6q2,3 3,7q1,5 18-6q5-3 5-12q0-5 6,7q-1,3 -2,6q-1,2 10-2q2-1 7-7q3,1 5,3q1,1 4-5q-1,1 -2,4q-3,6 10,1q7-5 13-10q3-2 -6,18q-5,36 -6,67q0,9 -11-4q-15-19 17-51" fill="none" stroke="#00fff2" stroke-width="4"></path><path d="M607,1134q-5-2 -9-4" fill="none" stroke="#00fff2" stroke-width="4"></path><path d="M-510,1229q-1,38 -3,38" fill="none" stroke="#00fff2" stroke-width="4"></path><path d="M-523,1252q1,0 3-2q9-1 16,0q1,0 4,0" fill="none" stroke="#00fff2" stroke-width="4"></path><path d="M-486,1252q0-1 0-5q0-2 -10,3q-1,0 0,5q0,1 5-1q2,1 4,3q4,4 10-9q2,2 3,6q3,8 12,3q1-1 -1-6q-2-4 -6,9q-3,9 2,9" fill="none" stroke="#00fff2" stroke-width="4"></path><path d="M-451,1250q1,3 2,6q2-2 5-5q3,2 6,7q6-3 12-10q3,2 5,6q1,2 8-5q-2,2 -5,6q0,20 6,38q5,16 -22,1" fill="none" stroke="#00fff2" stroke-width="4"></path><path d="M-460,1217q2-2 3-3q1-1 5,1" fill="none" stroke="#00fff2" stroke-width="4"></path><path d="M-383,1247q14-4 17-7q-5,1 -12,4q-5,2 -3,12q2,7 25-2q8-3 8-12q0-1 -3,2q-4,3 10,14q6,5 10-9q0-1 -1-4q-4,3 -8,9q-6,9 -6,13" fill="none" stroke="#00fff2" stroke-width="4"></path><path d="M-301,1253q-4-11 -8-11q-7,0 -10,12q0,1 6,0q3-1 5-3q1-1 2,5q1,6 14-7q3,3 6,8q1,2 6-6q2,1 4,4q0,1 8-7q1-1 5,8q4,9 16-3q1-1 2-7q0,16 -1,46" fill="none" stroke="#00fff2" stroke-width="4"></path><path d="M-243,1244q5-1 8,0q-2,8 -9,17q-1,2 11-4q19-9 24-45q1-7 -7,1q-9,9 -6,26q3,15 25-7q-2,3 -5,7q-2,11 -1,20q1,8 17-2q0,0 2-2" fill="none" stroke="#00fff2" stroke-width="4"></path><path d="M-144,1247q13-1 16-1" fill="none" stroke="#00fff2" stroke-width="4"></path><path d="M-146,1258q11-1 20-1" fill="none" stroke="#00fff2" stroke-width="4"></path><path d="M-321,1331q8-25 4-32q-5-9 -9,12q-8,41 2,44q7,2 14-1" fill="none" stroke="#00fff2" stroke-width="4"></path><path d="M-287,1334q9-3 10,0" fill="none" stroke="#00fff2" stroke-width="4"></path><path d="M-285,1340q11,1 11,2" fill="none" stroke="#00fff2" stroke-width="4"></path><path d="M-185,1310q-23-11 -26-11q-4,11 -3,25q0,8 -7,30q-3,10 25,10q3,0 6,1" fill="none" stroke="#00fff2" stroke-width="4"></path><path d="M-158,1326q0,22 -1,21" fill="none" stroke="#00fff2" stroke-width="4"></path><path d="M-160,1319q-1,0 -3,0q-3,0 -6,17q0,0 0,2" fill="none" stroke="#00fff2" stroke-width="4"></path><path d="M-167,1359q4,3 8,3q4,0 8-1" fill="none" stroke="#00fff2" stroke-width="4"></path><path d="M-104,1352q-2,1 -2,5q-2,7 -5,12" fill="none" stroke="#00fff2" stroke-width="4"></path><path d="M-66,1327q0-1 0-3q0-2 11,2q4,2 -4,14q-4,4 -8,6q-3,2 21,2" fill="none" stroke="#00fff2" stroke-width="4"></path><path d="M-26,1342q-4,15 -7,28" fill="none" stroke="#00fff2" stroke-width="4"></path><path d="M26,1322q11-7 11-3q0,1 -7,8q-2,2 12,3q8,1 2,9q-6,2 -12,3" fill="none" stroke="#00fff2" stroke-width="4"></path><path d="M66,1349q2,4 1,8q-1,5 -13,17" fill="none" stroke="#00fff2" stroke-width="4"></path><path d="M108,1322q-9,10 -8,13q1,3 17,3q0,0 0-1q0-2 0,11" fill="none" stroke="#00fff2" stroke-width="4"></path><path d="M139,1344q2,3 4,6q8,12 -16,12" fill="none" stroke="#00fff2" stroke-width="4"></path><path d="M137,1341q9-2 10-3" fill="none" stroke="#00fff2" stroke-width="4"></path><path d="M165,1290q-6-3 -3-4q28-9 32-2q3,5 5,35q4,35 8,63q1,4 -20-5q-4-2 -22,0" fill="none" stroke="#00fff2" stroke-width="4"></path><path d="M-93,1431q-3-3 -4,2q-1,5 0,24" fill="none" stroke="#00fff2" stroke-width="4"></path><path d="M-109,1421q0,0 1-2q1-2 30-2q0,0 2-1" fill="none" stroke="#00fff2" stroke-width="4"></path><path d="M-56,1437q8-1 10,0" fill="none" stroke="#00fff2" stroke-width="4"></path><path d="M-52,1451q16-4 19-4" fill="none" stroke="#00fff2" stroke-width="4"></path><path d="M-458,1551q14-40 12-47q-3-9 -11,38q-3,12 -5,22q-1,4 18,4q0,0 2-1" fill="none" stroke="#00fff2" stroke-width="4"></path><path d="M-433,1550q-3,2 -3,5q0,15 10,5q4-3 -3-10q4-2 11-3q2,0 5,10q1,4 9-1q8-5 -7-5q-1,0 -2,3q1,0 2,0" fill="none" stroke="#00fff2" stroke-width="4"></path><path d="M-393,1551q0,37 -2,39" fill="none" stroke="#00fff2" stroke-width="4"></path><path d="M-396,1554q0-1 -1-5q0-1 7,0q7,1 -4,12" fill="none" stroke="#00fff2" stroke-width="4"></path><path d="M-359,1533q-3,21 -3,20" fill="none" stroke="#00fff2" stroke-width="4"></path><path d="M-364,1526q0,1 -2,5q-3,7 -3,18" fill="none" stroke="#00fff2" stroke-width="4"></path><path d="M-373,1566q1,0 7,1q5,0 10-1" fill="none" stroke="#00fff2" stroke-width="4"></path><path d="M-295,1534q0,1 2,3q3,11 4,20q2,17 12-23q0,0 2,0" fill="none" stroke="#00fff2" stroke-width="4"></path><path d="M-158,1529q-4,15 -3,22q2,10 18,6q8-2 4-22q-1-5 -12-9q-4-1 -4,5" fill="none" stroke="#00fff2" stroke-width="4"></path><path d="M-105,1544q21-2 39-3" fill="none" stroke="#00fff2" stroke-width="4"></path><path d="M-13,1537q4-8 7-7q8,4 8,18q0,2 2-11q2-12 13-5q4,9 5,18" fill="none" stroke="#00fff2" stroke-width="4"></path><path d="M46,1537q13-2 13-2" fill="none" stroke="#00fff2" stroke-width="4"></path><path d="M110,1516q-1-6 -2-8q-1,12 2,32" fill="none" stroke="#00fff2" stroke-width="4"></path><path d="M107,1496q-1,1 -2,1q-6,8 -9,16q-1,1 -2,1" fill="none" stroke="#00fff2" stroke-width="4"></path><path d="M101,1549q6,2 11,3q2,1 12,0" fill="none" stroke="#00fff2" stroke-width="4"></path><path d="M-202,1658q9-17 9-23q0-15 -3-9q-6,12 -6,42q0,16 19,1q1-1 4-7q-1,2 -2,6q-3,8 8,4q4-1 -1-12q-3-5 -7-3q-4,2 14,2q1,0 4-2q1,5 -1,13q-2,9 11,6q13-3 2-14q-4-4 -7,1q0,1 2,4" fill="none" stroke="#00fff2" stroke-width="4"></path><path d="M-137,1663q1,26 1,39" fill="none" stroke="#00fff2" stroke-width="4"></path><path d="M-136,1667q0-5 5-6q15-3 5,11q-2,3 -15,9" fill="none" stroke="#00fff2" stroke-width="4"></path><path d="M-83,1645q-2-1 -4,2q-11,16 3,23q6,3 13-10q5-9 -11-18q-1,0 -4,1" fill="none" stroke="#00fff2" stroke-width="4"></path><path d="M-33,1653q2,0 12-1q10-1 48-4" fill="none" stroke="#00fff2" stroke-width="4"></path><path d="M23,1641q9,5 10,9q1,5 -12,15" fill="none" stroke="#00fff2" stroke-width="4"></path><path d="M112,1586q-6-8 -10-5q-12,8 -3,20q5,7 19-14q3-4 3-21q0,11 -1,32q0,8 4,14" fill="none" stroke="#00fff2" stroke-width="4"></path><path d="M147,1582q10-1 10,1" fill="none" stroke="#00fff2" stroke-width="4"></path><path d="M151,1594q7,0 13,0" fill="none" stroke="#00fff2" stroke-width="4"></path><path d="M221,1552q1-5 -2-8q-6-6 -10,29q-2,16 -13,16q1-3 3-7q0,7 -2,20q-2,11 16,20q1,0 5,0" fill="none" stroke="#00fff2" stroke-width="4"></path><path d="M279,1542q-4-3 -5-5q-4-8 15-3q4,1 0,25q-5,30 16,38q8,3 15-10q5-9 -6-4q-1,0 -9,28q-2,8 -26,12" fill="none" stroke="#00fff2" stroke-width="4"></path><path d="M116,1655q-8-8 -13-8q-2,0 3,17q3,11 3,85q-2,28 -5,50q-2,18 8,90q0,13 0,24q0,1 1-4" fill="none" stroke="#00fff2" stroke-width="4"></path><path d="M477,1634q5-3 5-1q-2,29 -5,53q-1,25 0,45q-1,39 -3,70q0,40 0,73q-1,29 -2,52q0,2 -3,12q0,1 -6-3" fill="none" stroke="#00fff2" stroke-width="4"></path><path d="M289,1654q-1,0 -2,0q0,6 3,13q0,0 -4,45q-6,68 -2,102q1,8 1,113q0,2 1,11" fill="none" stroke="#00fff2" stroke-width="4"></path><path d="M166,1677q0,17 0,30" fill="none" stroke="#00fff2" stroke-width="4"></path><path d="M166,1704q10-13 19-23q-4,3 -11,10q-3,1 -5,2q5,8 16,16q1,1 6,3" fill="none" stroke="#00fff2" stroke-width="4"></path><path d="M209,1693q10-5 12-7q-3-1 -7-2q-2,0 -6,11q-4,12 22,2q4-1 4-8q0-1 5,3q1,1 2-5q0,9 -1,25q0,13 1,24q1,10 -19,5q-5-1 6-16" fill="none" stroke="#00fff2" stroke-width="4"></path><path d="M368,1672q-1-3 -2-6q-1-3 3,13q6,22 8,26q1,1 15-28q-1,0 -3,1" fill="none" stroke="#00fff2" stroke-width="4"></path><path d="M112,1749q16,3 26,2q62-1 113,1q57,1 103,1q47,4 86,8q26,3 40,3q2,0 -10-4" fill="none" stroke="#00fff2" stroke-width="4"></path><path d="M-233,1762q0-2 0-4q-1,6 -3,18q-1,8 16-1q10-5 5-21q-6,15 -10,43q-3,19 3,22q6,3 11-7q2-5 -9-20q0-1 2-3" fill="none" stroke="#00fff2" stroke-width="4"></path><path d="M-176,1757q-1-2 -2-3q-1-1 -8,15q-4,10 11,18" fill="none" stroke="#00fff2" stroke-width="4"></path><path d="M189,1779q2,21 2,28q0,0 -2,0" fill="none" stroke="#00fff2" stroke-width="4"></path><path d="M188,1773q-1,1 -4,4q-4,6 -7,12q0,0 0,1" fill="none" stroke="#00fff2" stroke-width="4"></path><path d="M180,1814q17-1 31-2" fill="none" stroke="#00fff2" stroke-width="4"></path><path d="M366,1794q-4-1 -7,1q-9,6 -5,17q2,7 22,5q8-1 8-17q0-8 -26-8q-2,0 -11,5" fill="none" stroke="#00fff2" stroke-width="4"></path><path d="M109,1902q-3,70 0,63" fill="none" stroke="#00fff2" stroke-width="4"></path><path d="M125,1973q-1,0 -3,2" fill="none" stroke="#00fff2" stroke-width="4"></path><path d="M113,1972q25,4 33,4q67-3 122-7q85,0 154,3q25-2 45-4q16-2 17-4q1-1 -12-26" fill="none" stroke="#00fff2" stroke-width="4"></path><path d="M-178,2076q5-27 5-34q-2,4 -5,12q-5,15 4,34q4,8 14-8q3-5 3-2q0,9 6,9q8,0 -6-14q-1-1 6-2q8-1 15-6q4,7 5,17q3-1 7-4q8-6 -13-6q1,1 2,2" fill="none" stroke="#00fff2" stroke-width="4"></path><path d="M-107,2074q-4,3 -4,8q0,24 0,44q0,1 0,1q0-2 0-5" fill="none" stroke="#00fff2" stroke-width="4"></path><path d="M-111,2076q1-1 7-4q2-1 9,4q5,3 -11,16q0,0 -2,0" fill="none" stroke="#00fff2" stroke-width="4"></path><path d="M-45,2057q0,27 -2,25" fill="none" stroke="#00fff2" stroke-width="4"></path><path d="M-46,2052q-9,18 -9,25" fill="none" stroke="#00fff2" stroke-width="4"></path><path d="M-54,2101q4,0 8,0q8,0 14-1" fill="none" stroke="#00fff2" stroke-width="4"></path><path d="M128,2034q-1-5 1-4q6,16 7,33q7,97 13,176q-1,4 -2,8" fill="none" stroke="#00fff2" stroke-width="4"></path><path d="M199,2039q5,19 5,21q6-6 13-18q-3,2 -8,7q-3,3 18,8q1,0 3,0" fill="none" stroke="#00fff2" stroke-width="4"></path><path d="M415,2028q20,39 25,44q2,2 7-15q1-4 8-21q-7,0 -16,3" fill="none" stroke="#00fff2" stroke-width="4"></path><path d="M253,2125q0,1 0,4q0,26 4,31" fill="none" stroke="#00fff2" stroke-width="4"></path><path d="M332,2119q15,75 15,98q0,20 11,42q3,5 -3,5" fill="none" stroke="#00fff2" stroke-width="4"></path><path d="M422,2127q-3,4 -4,8q-3,14 10,17q8,2 5-17q-1-9 -31-2" fill="none" stroke="#00fff2" stroke-width="4"></path><path d="M252,2222q-1-4 1-5q13-6 10,12q-6,9 -12,15q-1,1 24-7q1,0 3,0" fill="none" stroke="#00fff2" stroke-width="4"></path><path d="M432,2205q2,22 2,35q0-1 0-2" fill="none" stroke="#00fff2" stroke-width="4"></path><path d="M428,2192q-1,2 -4,8q-3,6 -3,15" fill="none" stroke="#00fff2" stroke-width="4"></path><path d="M419,2242q3,3 12,2q19-2 19-10" fill="none" stroke="#00fff2" stroke-width="4"></path><path d="M521,2011q5,44 1,93q-11,84 -22,152q-1,3 -1,6" fill="none" stroke="#00fff2" stroke-width="4"></path><path d="M-243,2398q13-39 10-47q-7-21 -7,36q0,36 14,25q9-7 11-13q1-2 2,8q1,8 11,5q6-2 -4-14q-3-4 -12-4q9-3 27-7q1,5 0,12q-1,5 10,5q8,0 1-12q-2-4 -16,2q-2,1 0,10q0,1 4,1" fill="none" stroke="#00fff2" stroke-width="4"></path><path d="M-151,2386q5,64 5,79" fill="none" stroke="#00fff2" stroke-width="4"></path><path d="M-146,2400q-2-5 0-7q6-5 14,3q6,6 -16,22" fill="none" stroke="#00fff2" stroke-width="4"></path><path d="M-83,2374q0,0 0-2q0-2 10,2q11,5 -25,32q14,2 37-1" fill="none" stroke="#00fff2" stroke-width="4"></path><path d="M270,2383q0-1 -1-4q1,13 4,38" fill="none" stroke="#00fff2" stroke-width="4"></path><path d="M274,2494q-1-5 0-7q5-10 12,8q3,8 -17,22q-1,1 22,1q1,0 -2,3" fill="none" stroke="#00fff2" stroke-width="4"></path><path d="M279,2562q2-1 4-1q16-4 26-4q-7,7 -21,15q-6,3 -9,5q5,1 13,1q12,0 12,17q0,13 -21,10q-8-1 -8-13" fill="none" stroke="#00fff2" stroke-width="4"></path><path d="M392,2358q2,9 1,19q-1,66 1,120q-3,66 -7,120q-1,13 0,66" fill="none" stroke="#00fff2" stroke-width="4"></path><path d="M464,2374q-7,7 -8,19q-2,15 16,6q13-7 -8-24q-10-8 -20,14" fill="none" stroke="#00fff2" stroke-width="4"></path><path d="M464,2470q4,10 4,15q0,5 0,9" fill="none" stroke="#00fff2" stroke-width="4"></path><path d="M467,2461q-1-1 -4-5q-7,11 -12,29q-1,2 -2,4" fill="none" stroke="#00fff2" stroke-width="4"></path><path d="M440,2502q1,1 3,5q2,4 21,0q3-1 15-1" fill="none" stroke="#00fff2" stroke-width="4"></path><path d="M461,2575q-2-4 0-6q8-8 8,8q-7,12 -15,20q8,0 20-3" fill="none" stroke="#00fff2" stroke-width="4"></path><path d="M-472,2110q.4,.4 0,.4q-.4,0 -.4-.4q0-.4 .4-.4q.4,0 .4,.4" fill="none" stroke="#00fff2" stroke-width="4"></path><path d="M-248,2825q13-41 8-50q-5-9 -8,15q-1,7 5,31q2,7 22-2q2-2 4-4q1-1 -1,4q0,1 5,5q4,3 4-5q0-7 -12-7q8-4 22-8q1,6 -1,14q-1,2 8,8q7,5 4-7q-2-7 -13-7q0,0 0,2" fill="none" stroke="#00fff2" stroke-width="4"></path><path d="M-126,2806q3-9 7-12q-1,6 -4,15q-1,3 15,5q1,2 2,5q1,6 -31,9" fill="none" stroke="#00fff2" stroke-width="4"></path><path d="M87,2787q28-3 29-4q2-1 -7,11q-6,21 -8,40" fill="none" stroke="#00fff2" stroke-width="4"></path><path d="M155,2811q2-1 4-1q15-2 27-2" fill="none" stroke="#00fff2" stroke-width="4"></path><path d="M224,2787q-1,1 -2,2q-2,2 -16,30q10,4 25,4q3,0 0-13q-2,12 -3,33q0,5 -1,9" fill="none" stroke="#00fff2" stroke-width="4"></path><path d="M301,2809q12,0 21,0" fill="none" stroke="#00fff2" stroke-width="4"></path><path d="M305,2826q23,0 27-1" fill="none" stroke="#00fff2" stroke-width="4"></path><path d="M402,2801q2-3 5-4q14-5 5,10q-1,1 -5,5q3,0 7-1q14-3 5,12q-1,3 -12,6" fill="none" stroke="#00fff2" stroke-width="4"></path><path d="M466,2809q2-1 3-1q21-3 38-3q2,0 -1-7q-5,8 -8,23" fill="none" stroke="#00fff2" stroke-width="4"></path><path d="M564,2801q4-6 0-10q-7-7 -17,10q-6,10 10,12q11,2 20-34q0,0 0,1q-1,23 -2,42q0,0 2,1" fill="none" stroke="#00fff2" stroke-width="4"></path><path d="M637,2778q-4-17 -7-20q-8-8 -8,32q0,9 -18,17q-6-3 -11-8q3-2 7-4q8-3 -1,31q-6,23 25,12q2-1 7-7" fill="none" stroke="#00fff2" stroke-width="4"></path><path d="M654,2775q2-8 7-14q11-13 20,0q2,3 -17,39q-10,19 13,12q10-3 10,25q0,18 -35,0" fill="none" stroke="#00fff2" stroke-width="4"></path><path d="M642,2817q-2-2 -3-4" fill="none" stroke="#00fff2" stroke-width="4"></path><path d="M81,2899q1,28 1,40" fill="none" stroke="#00fff2" stroke-width="4"></path><path d="M83,2899q-3-5 -1-7q8-8 22,3q-4,11 -14,20" fill="none" stroke="#00fff2" stroke-width="4"></path><path d="M114,2901q2-2 3-3q6-6 9,11q0,2 -6,6q2-4 6-11q2-3 10-3" fill="none" stroke="#00fff2" stroke-width="4"></path><path d="M143,2900q1,8 3,9q4-1 8-4q1-1 3,4q4-3 8-9q2-3 9,11q2,0 4-1" fill="none" stroke="#00fff2" stroke-width="4"></path><path d="M187,2883q4,24 2,31q0,1 -5,3" fill="none" stroke="#00fff2" stroke-width="4"></path><path d="M179,2912q1-5 7-8q9-3 17-4" fill="none" stroke="#00fff2" stroke-width="4"></path><path d="M272,2875q-2-3 -5-1q-52,35 -11,64q1,1 4,4" fill="none" stroke="#00fff2" stroke-width="4"></path><path d="M95,2816q-8-1 -10,1" fill="none" stroke="#00fff2" stroke-width="4"></path><path d="M294,2907q0-7 -5-7q-7,0 -11,18q-2,8 11,8q13,0 13-14q0-10 0-19q0,16 0,45" fill="none" stroke="#00fff2" stroke-width="4"></path><path d="M337,2893q-10-5 -10,0q0,47 6,50q9,5 14,0" fill="none" stroke="#00fff2" stroke-width="4"></path><path d="M359,2908q-2-3 0-5q11-11 11,4q0,6 -6,8q-2,1 8,1q2,0 2,8q0,5 -12,5q-1,0 -2-2" fill="none" stroke="#00fff2" stroke-width="4"></path><path d="M384,2892q0-3 3-3q13,0 13,1q2,4 2,55q0,2 -15,2" fill="none" stroke="#00fff2" stroke-width="4"></path><path d="M439,2924q-3,15 -7,24q-3,5 -5,9" fill="none" stroke="#00fff2" stroke-width="4"></path><path d="M475,2901q6-7 17-7q6,0 3,7q-2,4 -15,7q7,3 21,5q5,4 9,8q9,10 -21,0" fill="none" stroke="#00fff2" stroke-width="4"></path><path d="M519,2860q21-2 24-1q30,15 25,85q-1,17 -15,20q-3,1 -16,0" fill="none" stroke="#00fff2" stroke-width="4"></path><path d="M172,2951q0,33 2,43q3,17 45,17" fill="none" stroke="#00fff2" stroke-width="4"></path><path d="M223,2989q1,1 6,3q9,4 -14,27" fill="none" stroke="#00fff2" stroke-width="4"></path><path d="M302,2999q2-4 7-5q16-3 7,14q-7,7 -13,13q-2,2 21,2q5,0 9,1" fill="none" stroke="#00fff2" stroke-width="4"></path><path d="M357,3017q0,0 1,2q1,2 -7,26" fill="none" stroke="#00fff2" stroke-width="4"></path><path d="M387,2997q3-3 7-3q9,0 -1,13q-2,3 9,10q7,5 -10,12q-5,2 -26,0" fill="none" stroke="#00fff2" stroke-width="4"></path><path d="M-71,1288q1,0 3,1" fill="none" stroke="#00fff2" stroke-width="4"></path><path d="M8,1402Q18,1402 27,1402Q29,1402 24,1412Q19,1436 17,1456Q15,1483 9,1477Q9,1477 9,1474" fill="none" stroke="#00fff2" stroke-width="4"></path><path d="M-158,1283q-3,7 -3,14q0,11 13-2q4-4 -3-13q-5-7 -5,2" fill="none" stroke="#00fff2" stroke-width="4"></path><path d="M-76,1282q-3,15 -4,22q0,1 0,3" fill="none" stroke="#00fff2" stroke-width="4"></path><path d="M21,1287q6-3 8-2q3,2 -8,13q0,0 -1,2q7,3 18,2" fill="none" stroke="#00fff2" stroke-width="4"></path><path d="M128,1292q-4-2 -3-3q2-2 9-2q1,0 -10,7q3,5 10,10q2,1 -10,4q-3,1 -13-1" fill="none" stroke="#00fff2" stroke-width="4"></path></svg>